<?xml version="1.0" standalone="no"?><!DOCTYPE svg PUBLIC "-//W3C//DTD SVG 1.1//EN" "http://www.w3.org/Graphics/SVG/1.1/DTD/svg11.dtd"><svg t="1693580335853" class="icon" viewBox="0 0 1024 1024" version="1.1" xmlns="http://www.w3.org/2000/svg" p-id="4009" xmlns:xlink="http://www.w3.org/1999/xlink" width="200" height="200"><path d="M632.018467 522.016121c71.581292-42.330084 119.834272-120.100332 119.834272-209.110575 0-133.989667-109.007693-243.005546-243.005546-243.005546S265.840624 178.916902 265.840624 312.905546c0 89.738837 49.025577 168.08316 121.577986 210.17072C208.03201 572.684104 71.446215 726.996632 51.101865 920.419923c-1.62501 15.406898 9.547447 29.207206 24.954345 30.832216 15.388479 1.515516 29.197996-9.547447 30.813796-24.954345 21.832238-207.591989 195.945741-364.126114 404.988778-364.126114 210.357985 0 384.570749 157.629063 405.253814 366.644471 1.432629 14.475689 13.627369 25.282826 27.865651 25.282826 0.921999 0 1.862417-0.036839 2.792603-0.127913 15.416108-1.532913 26.670429-15.260565 25.145703-30.667463C953.472714 726.762295 814.636668 570.487066 632.018467 522.016121zM508.84617 499.832889c-103.074563 0-186.927343-83.86199-186.927343-186.92632 0-103.065354 83.85278-186.927343 186.927343-186.927343s186.927343 83.86199 186.927343 186.927343C695.774537 415.9709 611.921757 499.832889 508.84617 499.832889z" fill="#070707" p-id="4010"></path></svg>